<svg xmlns="http://www.w3.org/2000/svg" version="1.1" width="260" height="260" viewbox="0 0 260 260">
  <g transform="translate(-100.50113,-214.27504)">
    <path
       d="m 228.09373,214.28431 c -4.8228,0.17375 -7.51958,1.69178 -9.59375,5.09375 -2.64524,4.33867 -2.6784,12.14736 -0.0625,16.4375 l 1.9375,3.1875 -2.6875,0.53125 c -1.48193,0.28254 -4.7125,0.7895 -7.1875,1.15625 -12.59411,1.86623 -27.50552,8.20691 -40.25,17.09375 l -7.75,5.40625 0,-2.96875 c 0,-7.71841 -4.99104,-12.0565 -13.8125,-12.0625 -2.91481,-0.002 -6.60538,0.66569 -8.21875,1.5 -3.96312,2.0494 -5.97375,6.31759 -5.96875,12.6875 0.006,8.78429 4.36581,13.8125 12,13.8125 l 2.875,0 -6.1875,8.25 c -10.00079,13.29565 -16.30655,28.25954 -18.21875,43.40625 l -0.625,5.1875 -3.1875,-1.90625 c -3.43234,-2.09288 -9.94935,-2.54444 -14.09375,-0.96875 -8.752553,3.32772 -8.752553,22.70353 0,26.03125 4.24307,1.61321 10.44064,1.15662 14.03125,-1.0625 l 3.34375,-2.0625 0.46875,2.3125 c 0.25636,1.27072 0.99084,5.18457 1.625,8.71875 2.41696,13.46974 8.70962,27.35071 18,39.625 l 4.875,6.46875 -2.875,0 c -7.65351,0 -12.02525,4.98839 -12.03125,13.78125 -0.007,9.78219 4.40531,14.1945 14.1875,14.1875 8.82146,-0.006 13.8125,-4.34409 13.8125,-12.0625 l 0,-2.96875 7.75,5.40625 c 12.74448,8.88684 27.65589,15.22752 40.25,17.09375 2.475,0.36675 5.75304,0.89479 7.28125,1.1875 l 2.78125,0.53125 -2.03125,3.28125 c -4.03698,6.53197 -1.6766,18.05235 4.21875,20.5625 1.23402,0.52542 5.07926,0.84643 8.53125,0.6875 8.61148,-0.39646 11.41525,-3.10884 12.03125,-11.625 0.3474,-4.80282 0.0156,-6.71936 -1.625,-9.5 l -2.0625,-3.46875 4.6875,-0.625 c 15.96458,-2.12858 31.00279,-7.8609 44.71875,-17.03125 l 9.46875,-6.34375 0,2.875 c 0,7.63124 5.02952,11.994 13.8125,12 9.71125,0.007 14.1875,-4.39021 14.1875,-13.96875 0,-8.70049 -4.52478,-14 -11.96875,-14 l -3.09375,0 4.96875,-6.5 c 9.28715,-12.11696 15.6284,-26.0285 18.0625,-39.59375 0.63416,-3.53418 1.36864,-7.44803 1.625,-8.71875 l 0.46875,-2.3125 3.34375,2.0625 c 3.59061,2.21912 9.78818,2.67571 14.03125,1.0625 8.75256,-3.32772 8.75256,-22.70353 0,-26.03125 -4.1444,-1.57569 -10.66141,-1.12413 -14.09375,0.96875 l -3.1875,1.90625 -0.65625,-5.1875 c -1.9122,-15.14671 -8.18671,-30.1106 -18.1875,-43.40625 l -6.1875,-8.25 2.875,0 c 7.63419,0 11.994,-5.02821 12,-13.8125 0.007,-9.78219 -4.40531,-14.1945 -14.1875,-14.1875 -8.78298,0.006 -13.8125,4.36876 -13.8125,12 l 0,2.875 -9.28125,-6.21875 c -13.81444,-9.2362 -27.12817,-14.21191 -45.90625,-17.15625 l -3.71875,-0.59375 2.0625,-3.5 c 1.65105,-2.7983 2.0042,-4.68955 1.65625,-9.5 -0.59807,-8.2682 -3.43775,-11.12284 -11.53125,-11.6875 -1.35797,-0.0948 -2.57455,-0.13385 -3.6875,-0.0937 z m -11.59375,54.03125 0,3.46875 c 0,1.9019 0.6324,4.69051 1.40625,6.1875 1.19646,2.31375 1.19762,3.08053 0.0312,5.1875 -1.76228,3.18402 -1.76392,9.78212 0,12.96875 1.03548,1.87065 1.10627,2.98119 0.28125,4.5 -0.60243,1.10903 -1.34558,3.44334 -1.65625,5.1875 l -0.5625,3.15625 -2.3125,-1.875 c -1.27674,-1.03911 -3.82921,-2.15724 -5.65625,-2.5 -2.66675,-0.50028 -3.43513,-1.2069 -3.90625,-3.5625 -0.75264,-3.76323 -4.76263,-7.77752 -8.53125,-8.53125 -1.92787,-0.38557 -3.13612,-1.33143 -3.5,-2.78125 -0.30567,-1.21788 -1.63915,-3.82197 -2.96875,-5.78125 l -2.40625,-3.5625 8.78125,-4.1875 c 4.82841,-2.29458 11.51275,-4.98199 14.875,-6 l 6.125,-1.875 z m 28.21875,0.34375 c 0.0683,-0.014 0.13735,-0.0244 0.21875,0 9.83461,2.95258 13.41011,4.28499 20.78125,7.71875 l 8.6875,4.0625 -1.90625,2.40625 c -1.04552,1.32917 -2.36607,3.92385 -2.96875,5.75 -0.83007,2.51514 -1.83131,3.45376 -4.09375,3.90625 -3.80171,0.76034 -7.80911,4.73304 -8.5625,8.5 -0.44899,2.24492 -1.27256,3.07327 -3.5625,3.53125 -1.639,0.3278 -4.30253,1.5143 -5.90625,2.65625 l -2.90625,2.09375 0,-2.84375 c 0,-1.56507 -0.7188,-3.87583 -1.59375,-5.125 -1.45444,-2.07649 -1.45444,-2.56001 0,-5.625 2.01701,-4.25055 2.01661,-7.81906 0,-11.71875 -1.46675,-2.83639 -1.46895,-3.32148 0.125,-6.28125 1.01261,-1.88032 1.54463,-4.48673 1.28125,-6.28125 -0.24127,-1.64391 -0.0716,-2.6523 0.40625,-2.75 z m -77.84375,31.625 2.375,1.875 c 1.30542,1.02685 3.86135,2.36607 5.6875,2.96875 2.51676,0.83061 3.48402,1.82635 3.9375,4.09375 0.72677,3.63385 5.06247,7.86875 8.84375,8.625 1.75796,0.35159 2.78125,1.18358 2.78125,2.28125 0,0.9545 1.11033,3.37325 2.46875,5.375 l 2.46875,3.65625 -2.71875,0.0312 c -1.49592,0.0195 -3.8243,0.65162 -5.1875,1.40625 -2.10697,1.1664 -2.905,1.16524 -5.21875,-0.0312 -1.49699,-0.77413 -4.33287,-1.40625 -6.3125,-1.40625 -1.97963,0 -4.81551,0.63209 -6.3125,1.40625 -2.31375,1.19646 -3.11178,1.19762 -5.21875,0.0312 -1.3632,-0.75463 -3.93125,-1.38675 -5.71875,-1.40625 -2.14606,-0.0234 -3.25,-0.54887 -3.25,-1.5 0,-2.50242 5.07322,-15.8155 8.28125,-21.71875 l 3.09375,-5.6875 z m 126.28125,0.53125 c 0.67685,0.002 1.35726,0.97073 2.875,3.375 2.92243,4.62943 8.17032,17.28911 9.09375,21.90625 0.58079,2.90394 0.47192,3.05995 -2.75,3.09375 -1.85625,0.0195 -4.48055,0.65162 -5.84375,1.40625 -2.10697,1.1664 -2.905,1.16524 -5.21875,-0.0312 -1.49699,-0.77413 -4.33287,-1.40625 -6.3125,-1.40625 -1.97963,0 -4.82731,0.57686 -6.3125,1.3125 -2.24293,1.11093 -3.11097,1.12997 -5.1875,0.0312 -1.375,-0.72753 -3.72283,-1.33575 -5.21875,-1.34375 l -2.71875,0 2.46875,-3.65625 c 1.35842,-2.00175 2.46875,-4.47675 2.46875,-5.5 0,-1.02325 0.71019,-1.84375 1.5625,-1.84375 3.54986,0 7.6541,-3.27949 9.5625,-7.59375 1.38915,-3.14041 2.92563,-4.82312 5.21875,-5.78125 1.78175,-0.74446 3.98499,-2.11 4.90625,-3.03125 0.58751,-0.58751 1.00014,-0.93858 1.40625,-0.9375 z m -63.25,25.59375 c 6.9767,-0.27563 13.77946,3.65145 16.78125,10.4375 3.56221,8.05296 -0.0397,17.1222 -8.4375,21.1875 -5.56273,2.69285 -10.11829,2.67904 -15.59375,-0.0312 -12.97575,-6.42283 -12.77499,-23.52433 0.34375,-29.875 2.22358,-1.07642 4.58068,-1.62687 6.90625,-1.71875 z m 46.4375,28.28125 c 0.79631,-8.4e-4 1.56295,0.31703 2.8125,0.96875 3.51989,1.83587 9.04246,1.84146 12.3125,0.0312 2.10697,-1.1664 2.905,-1.16524 5.21875,0.0312 1.49699,0.77413 4.07269,1.4375 5.75,1.4375 3.83572,0 3.83967,0.7195 0.0312,11.1875 -1.66128,4.56625 -4.24412,10.37737 -5.75,12.9375 l -2.75,4.65625 -2.46875,-2.03125 c -1.37034,-1.11831 -3.68467,-2.42953 -5.125,-2.9375 -1.71145,-0.60359 -3.1543,-2.29304 -4.15625,-4.84375 -1.53285,-3.90225 -6.55397,-7.96075 -9.84375,-7.96875 -1.02703,-0.002 -1.87651,-1.19508 -2.28125,-3.21875 -0.35221,-1.76105 -1.59384,-4.23605 -2.78125,-5.5 l -2.15625,-2.28125 2.71875,0 c 1.49818,0 4.01619,-0.68407 5.59375,-1.5 1.26556,-0.65436 2.07869,-0.96791 2.875,-0.96875 z m -109.34375,0.15625 c 0.74749,0.005 1.53062,0.27676 2.6875,0.875 1.49699,0.77413 4.33287,1.4375 6.3125,1.4375 1.97963,0 4.81551,-0.66338 6.3125,-1.4375 2.31375,-1.19646 3.11178,-1.19762 5.21875,-0.0312 1.3632,0.75463 3.69158,1.38675 5.1875,1.40625 l 2.71875,0.0625 -2.46875,3.625 c -1.35842,2.00175 -2.46875,4.4205 -2.46875,5.375 0,1.13644 -1.05548,1.94235 -3.0625,2.34375 -3.72972,0.74594 -8.9375,5.7125 -8.9375,8.53125 0,1.41767 -1.32036,2.74577 -4.25,4.21875 -2.3375,1.17526 -4.93481,2.72762 -5.78125,3.46875 -1.3396,1.17293 -1.9531,0.59881 -4.65625,-4.375 -3.22584,-5.93554 -8.3125,-19.24005 -8.3125,-21.75 0,-0.95113 1.10394,-1.4766 3.25,-1.5 1.7875,-0.0195 4.35555,-0.65162 5.71875,-1.40625 1.05348,-0.5832 1.78376,-0.84884 2.53125,-0.84375 z m 49.5,22.15625 0.0312,2.8125 c 0.0195,1.55242 0.65162,3.9493 1.40625,5.3125 1.1664,2.10697 1.16524,2.87375 -0.0312,5.1875 -1.77265,3.42786 -1.75981,9.57706 0.0312,12.8125 1.1664,2.10697 1.16524,2.87375 -0.0312,5.1875 -0.77413,1.49699 -1.40625,4.10394 -1.40625,5.78125 0,2.27544 -0.44428,3.0113 -1.75,2.9375 -3.22763,-0.18235 -10.69128,-2.86067 -19.46875,-7.03125 l -8.6875,-4.15625 1.875,-2.40625 c 1.04552,-1.32916 2.39732,-3.92384 3,-5.75 0.83007,-2.51513 1.83131,-3.45376 4.09375,-3.90625 3.80645,-0.76129 7.8068,-4.75272 8.5625,-8.53125 0.46978,-2.34889 1.23993,-3.0369 3.875,-3.53125 1.81049,-0.33965 4.47546,-1.56204 5.90625,-2.6875 l 2.59375,-2.03125 z m 28,0 2.90625,2.09375 c 1.60372,1.14195 4.26725,2.32845 5.90625,2.65625 2.22285,0.44457 3.1273,1.29275 3.53125,3.3125 0.79881,3.99405 3.63967,6.96441 8.125,8.5 3.02473,1.03553 4.15028,2.05623 4.71875,4.25 0.41087,1.5856 1.70426,3.93086 2.875,5.1875 1.17075,1.25665 1.97405,2.4203 1.78125,2.59375 -1.49382,1.34388 -14.14615,6.99275 -20.21875,9.03125 -4.1083,1.37911 -7.97197,2.53125 -8.5625,2.53125 -0.59052,0 -1.0625,-1.42236 -1.0625,-3.125 0,-1.70264 -0.73711,-4.30943 -1.625,-5.8125 -1.48578,-2.51522 -1.48578,-2.97057 0,-5.84375 2.12142,-4.10237 2.04251,-8.02188 -0.25,-11.78125 -1.81757,-2.98096 -1.82148,-3.12558 0,-5.375 1.02678,-1.26803 1.875,-3.62348 1.875,-5.25 l 0,-2.96875 z"
       style="fill:#ffffff" />
  </g>
</svg>
