<?xml version="1.0" encoding="UTF-8" standalone="no"?>
<svg xmlns="http://www.w3.org/2000/svg" version="1.1" width="260" height="260">
  <g transform="translate(-100.50113,-211.88127)" >
    <g transform="translate(-81.428569,-141.42858)">
      <path
         d="m 304.18488,612.6009 c -5.89535,-2.51015 -8.26473,-14.03871 -4.22775,-20.57068 l 2.02858,-3.28231 -2.77858,-0.5322 c -1.52821,-0.29271 -4.80357,-0.83227 -7.27857,-1.19902 -12.59411,-1.86623 -27.50552,-8.19426 -40.25,-17.0811 l -7.75,-5.40415 0,2.95741 c 0,7.71841 -4.9782,12.07764 -13.79966,12.08386 -9.78219,0.007 -14.2035,-4.41441 -14.1966,-14.1966 0.006,-8.79286 4.36777,-13.79966 12.02128,-13.79966 l 2.89481,0 -4.88591,-6.45519 c -9.29038,-12.27429 -15.60017,-26.14929 -18.01713,-39.61903 -0.63416,-3.53418 -1.36276,-7.46547 -1.61912,-8.73619 l -0.4661,-2.31042 -3.33382,2.06042 c -3.59061,2.21912 -9.78912,2.69855 -14.03219,1.08534 -8.75256,-3.32772 -8.75256,-22.72214 0,-26.04986 4.1444,-1.57569 10.66737,-1.13044 14.09971,0.96244 l 3.16527,1.93004 0.65442,-5.18378 c 1.9122,-15.14671 8.19129,-30.13812 18.19208,-43.43377 l 6.20552,-8.25 -2.87618,0 c -7.63419,0 -11.99645,-5.01537 -12.00264,-13.79966 -0.005,-6.36991 2.00041,-10.63401 5.96353,-12.68341 1.61337,-0.83431 5.31826,-1.51525 8.23307,-1.51319 8.82146,0.006 13.79966,4.36545 13.79966,12.08386 l 0,2.95741 7.75,-5.40415 c 12.74448,-8.88684 27.65589,-15.21487 40.25,-17.0811 2.475,-0.36675 5.71248,-0.89799 7.19441,-1.18053 l 2.6944,-0.51372 -1.94066,-3.18276 c -2.6159,-4.29014 -2.58924,-12.11901 0.056,-16.45768 2.55283,-4.18703 6.04756,-5.50058 13.29009,-4.99529 8.0935,0.56466 10.90848,3.4254 11.50655,11.6936 0.34795,4.81045 0.0225,6.71089 -1.62855,9.50919 l -2.06342,3.49723 3.69557,0.57945 c 18.77808,2.94434 32.08933,7.91904 45.90377,17.15524 l 9.29184,6.2124 0,-2.87335 c 0,-7.63124 5.01668,-11.99361 13.79966,-11.9998 9.78219,-0.007 14.2035,4.41441 14.1966,14.1966 -0.006,8.78429 -4.36845,13.79966 -12.00264,13.79966 l -2.87618,0 6.20552,8.25 c 10.00079,13.29565 16.27988,28.28706 18.19208,43.43377 l 0.65442,5.18378 3.16527,-1.93004 c 3.43234,-2.09288 9.95531,-2.53813 14.09971,-0.96244 8.75256,3.32772 8.75256,22.72214 0,26.04986 -4.24307,1.61321 -10.44158,1.13378 -14.03219,-1.08534 l -3.33382,-2.06042 -0.4661,2.31042 c -0.25636,1.27072 -0.98496,5.20201 -1.61912,8.73619 -2.4341,13.56525 -8.78124,27.47236 -18.06839,39.58932 l -4.9704,6.4849 3.07745,0 c 7.44397,0 11.97813,5.29951 11.97813,14 0,9.57854 -4.48909,14.00311 -14.20034,13.99626 -8.78298,-0.006 -13.79966,-4.36856 -13.79966,-11.9998 l 0,-2.87334 -9.47432,6.33443 c -13.71596,9.17035 -28.7469,14.8924 -44.71148,17.02098 l -4.68581,0.62476 2.05366,3.48069 c 1.64062,2.78064 1.96619,4.68982 1.61879,9.49264 -0.616,8.51616 -3.41302,11.21773 -12.0245,11.61419 -3.45199,0.15893 -7.286,-0.14094 -8.52002,-0.66636 z m 15.43607,-4.2623 c 4.71809,-4.71808 3.74701,-14.85107 -1.70274,-17.76769 -4.20469,-2.25028 -2.17044,-3.61046 7.26035,-4.85458 17.3272,-2.28582 36.19457,-10.37382 49.82888,-21.36047 3.26216,-2.62868 6.4065,-4.77941 6.98743,-4.77941 0.67551,0 0.82749,1.53193 0.42162,4.25 -0.82638,5.53428 0.6815,9.27307 4.73714,11.7458 8.42913,5.13924 18.77493,-0.36888 18.77493,-9.9958 0,-7.62285 -5.97799,-12.68027 -13.63171,-11.53252 -2.88952,0.43331 -4.36829,0.2856 -4.36829,-0.43632 0,-0.60026 2.41996,-3.94401 5.37768,-7.43055 11.30282,-13.32367 19.17044,-30.82778 21.62344,-48.10847 0.663,-4.67068 1.64359,-8.49214 2.17909,-8.49214 0.5355,0 2.32379,1.35015 3.97398,3.00034 1.65018,1.65019 4.1209,3.28158 5.49048,3.62533 9.7384,2.44418 17.02141,-9.87504 11.0717,-18.72779 -4.09932,-6.09949 -13.48611,-6.23131 -17.40884,-0.24447 -2.70372,4.12639 -3.99859,2.85923 -4.73713,-4.63573 -0.96013,-9.74379 -4.02061,-20.14458 -8.657,-29.42008 -4.07702,-8.15643 -11.79188,-19.27106 -16.32698,-23.52191 -3.99922,-3.74857 -3.42512,-5.32347 1.66358,-4.56362 5.53428,0.82638 9.27307,-0.6815 11.7458,-4.73714 6.92772,-11.36251 -5.40822,-23.69845 -16.77073,-16.77073 -4.05564,2.47273 -5.56352,6.21152 -4.73714,11.7458 0.41194,2.75873 0.25727,4.25 -0.44078,4.25 -0.59148,0 -3.45557,-1.93867 -6.36466,-4.30816 -14.83562,-12.08377 -33.67267,-19.85286 -53.93249,-22.24373 -3.1625,-0.3732 -5.75,-1.04209 -5.75,-1.48641 0,-0.44432 1.32695,-2.13481 2.94879,-3.75664 7.27367,-7.27367 4.07973,-18.60664 -5.6005,-19.87207 -2.11656,-0.27668 -5.08558,-0.026 -6.59783,0.55705 -3.31718,1.27897 -6.74159,6.56254 -6.74672,10.40962 -0.005,3.58156 2.448,8.33655 5.00661,9.70588 4.15059,2.22133 2.19997,3.66196 -6.63105,4.89736 -10.20483,1.42758 -22.54603,5.1614 -30.8793,9.34251 -6.79016,3.40687 -19.38354,11.86344 -22.04292,14.80201 -3.10079,3.42634 -4.66377,2.51612 -3.94501,-2.29742 0.82638,-5.53428 -0.6815,-9.27307 -4.73714,-11.7458 -11.36251,-6.92772 -23.69845,5.40822 -16.77073,16.77073 2.47273,4.05564 6.21152,5.56352 11.7458,4.73714 5.0887,-0.75985 5.6628,0.81505 1.66358,4.56362 -4.5351,4.25085 -12.24996,15.36548 -16.32698,23.52191 -4.63639,9.2755 -7.69687,19.67629 -8.657,29.42008 -0.73854,7.49496 -2.03341,8.76212 -4.73713,4.63573 -3.92273,-5.98684 -13.30952,-5.85502 -17.40884,0.24447 -5.94971,8.85275 1.3333,21.17197 11.0717,18.72779 1.36958,-0.34375 3.8403,-1.97514 5.49048,-3.62533 1.65019,-1.65019 3.40947,-3.00034 3.90951,-3.00034 0.50004,0 1.63096,4.39715 2.51314,9.77145 2.94184,17.92178 11.17185,35.71629 22.18339,47.96377 5.77131,6.41909 5.82246,7.57761 0.29815,6.75271 -5.53428,-0.82638 -9.27307,0.6815 -11.7458,4.73714 -6.92772,11.36251 5.40822,23.69845 16.77073,16.77073 4.05564,-2.47273 5.56352,-6.21152 4.73714,-11.7458 -0.71876,-4.81354 0.84422,-5.72376 3.94501,-2.29743 2.65938,2.93858 15.25276,11.39515 22.04292,14.80202 8.33327,4.18111 20.67447,7.91493 30.8793,9.34251 6.07988,0.85054 8.6207,1.61267 8.6207,2.58582 0,0.75892 -0.66589,1.63538 -1.47976,1.94769 -2.26667,0.8698 -5.52069,6.76108 -5.5165,9.98742 0.005,3.64182 3.31843,9.15705 6.25258,10.4066 3.82108,1.62726 10.7056,0.46799 13.43607,-2.26248 z m -29.69239,-48.82721 c -3.575,-1.05171 -10.6625,-3.92293 -15.75,-6.38048 -9.61699,-4.64555 -11.31545,-6.78347 -7.35436,-9.25721 1.0426,-0.65112 2.66053,-3.1867 3.59541,-5.63463 1.35695,-3.55313 2.29073,-4.56898 4.62993,-5.03682 3.75581,-0.75116 7.75405,-4.75096 8.50565,-8.50897 0.47511,-2.37554 1.23709,-3.05628 4.0015,-3.57489 1.87805,-0.35232 4.92692,-1.96839 6.77527,-3.59126 1.84834,-1.62288 4.1388,-2.95068 5.08991,-2.95068 1.43704,0 1.61752,0.59568 1.068,3.52491 -0.49491,2.63806 -0.12593,4.47744 1.46656,7.31089 l 2.12784,3.78597 -2.19008,3.71191 c -2.24422,3.80367 -2.22528,5.56975 0.12158,11.335 1.11136,2.73014 1.0419,3.7186 -0.50184,7.14201 -1.20754,2.67785 -1.56915,4.98666 -1.10909,7.08131 0.61397,2.79537 0.44831,3.10031 -1.64682,3.03157 -1.28121,-0.042 -5.25446,-0.93692 -8.82946,-1.98863 z m 8,-3.9846 c 0,-1.67731 0.63337,-4.27447 1.4075,-5.77146 1.19649,-2.31375 1.2018,-3.09337 0.0354,-5.20034 -1.79106,-3.23544 -1.80805,-9.3718 -0.0354,-12.79966 1.19649,-2.31375 1.2018,-3.09337 0.0354,-5.20034 -0.75463,-1.3632 -1.38801,-3.7487 -1.40749,-5.30112 l -0.0354,-2.82258 -2.60145,2.0463 c -1.43079,1.12546 -4.08276,2.32419 -5.89325,2.66384 -2.63507,0.49435 -3.40889,1.20296 -3.87867,3.55185 -0.7557,3.77853 -4.75575,7.75899 -8.5622,8.52028 -2.26244,0.45249 -3.25243,1.4025 -4.0825,3.91763 -0.60268,1.82616 -1.95122,4.4078 -2.99674,5.73696 l -1.90096,2.41667 8.70789,4.13752 c 8.77747,4.17058 16.23025,6.87289 19.45788,7.05524 1.30572,0.0738 1.75,-0.67535 1.75,-2.95079 z m 24,4.98392 c 0,-0.58616 0.50902,-2.01685 1.13115,-3.17932 0.92157,-1.72197 0.70231,-2.89863 -1.18337,-6.35054 l -2.31454,-4.23695 2.31894,-4.37124 c 2.45699,-4.63147 2.26012,-5.72842 -2.14295,-11.94025 -0.94785,-1.33723 -0.65179,-2.25436 1.58639,-4.91428 1.74006,-2.06794 2.54081,-3.94514 2.17805,-5.10596 -0.31552,-1.00965 -0.85115,-2.73572 -1.1903,-3.83572 -0.95279,-3.09029 3.02832,-2.56702 7.43942,0.97783 2.03803,1.63781 5.11477,3.25968 6.83719,3.60417 2.37843,0.47568 3.26194,1.27761 3.67323,3.33404 0.79881,3.99405 3.65634,6.98433 8.14167,8.51992 3.07689,1.05339 4.15042,2.03822 4.75186,4.35926 0.42734,1.64914 1.89336,4.05736 3.25784,5.35161 4.34083,4.11739 3.4016,5.56115 -6.73458,10.35222 -8.74272,4.13242 -22.09345,8.50095 -25.9799,8.50095 -0.97356,0 -1.7701,-0.47958 -1.7701,-1.06574 z m 13.61701,-4.44174 c 6.0726,-2.0385 18.73972,-7.70104 20.23354,-9.04492 0.1928,-0.17345 -0.60733,-1.34354 -1.77808,-2.60019 -1.17074,-1.25664 -2.46479,-3.58212 -2.87566,-5.16772 -0.56847,-2.19377 -1.6972,-3.2082 -4.72193,-4.24373 -4.48533,-1.53559 -7.34286,-4.52587 -8.14167,-8.51992 -0.40395,-2.01975 -1.29868,-2.85913 -3.52153,-3.3037 -1.639,-0.3278 -4.29212,-1.53032 -5.89584,-2.67227 l -2.91584,-2.07626 0,2.95731 c 0,1.62652 -0.8401,3.99479 -1.86688,5.26282 -1.82148,2.24942 -1.82157,2.37982 -0.004,5.36078 2.29251,3.75937 2.3777,7.67401 0.25628,11.77638 -1.48578,2.87318 -1.48578,3.33941 0,5.85463 0.88789,1.50307 1.61434,4.12592 1.61434,5.82856 0,1.70264 0.48316,3.09571 1.07368,3.09571 0.59053,0 4.43503,-1.12837 8.54333,-2.50748 z m -92.0084,-31.74252 c -3.71312,-6.65097 -9.60861,-23.06918 -9.60861,-26.7588 0,-1.99142 0.35406,-2.14736 3.52491,-1.55251 2.64145,0.49554 4.4786,0.12527 7.33007,-1.47734 l 3.80517,-2.13863 3.41993,2.0849 c 1.88095,1.1467 4.31992,2.0849 5.41992,2.0849 1.1,0 3.53897,-0.9382 5.41992,-2.0849 l 3.41993,-2.0849 3.80517,2.13863 c 2.85147,1.60261 4.68862,1.97288 7.33007,1.47734 2.92923,-0.54952 3.52491,-0.36904 3.52491,1.068 0,0.95111 -1.36862,3.28806 -3.04139,5.19323 -1.67276,1.90517 -3.29463,4.7302 -3.60416,6.27785 -0.42531,2.12653 -1.28602,2.95854 -3.52352,3.40604 -3.64422,0.72885 -8.83093,5.73436 -8.83093,8.52242 0,1.47016 -1.44525,2.79244 -5.04699,4.61758 -2.77584,1.40663 -5.29898,3.21421 -5.60699,4.01685 -1.26123,3.28671 -4.2669,1.42573 -7.73741,-4.79066 z m 12.14139,-1.65381 c 2.92964,-1.47298 4.25,-2.77577 4.25,-4.19344 0,-2.81875 5.20538,-7.79383 8.9351,-8.53977 2.00702,-0.4014 3.0649,-1.21199 3.0649,-2.34843 0,-0.9545 1.11144,-3.37325 2.46986,-5.375 l 2.46987,-3.63955 -2.71987,-0.0354 c -1.49592,-0.0195 -3.8352,-0.65286 -5.1984,-1.40749 -2.10697,-1.16637 -2.88659,-1.16106 -5.20034,0.0354 -1.49699,0.77412 -4.34149,1.40749 -6.32112,1.40749 -1.97963,0 -4.82413,-0.63337 -6.32112,-1.4075 -2.31375,-1.19649 -3.09337,-1.2018 -5.20034,-0.0354 -1.3632,0.75463 -3.94104,1.38801 -5.72854,1.40749 -2.14606,0.0234 -3.25,0.52471 -3.25,1.47584 0,2.50995 5.0908,15.83806 8.31664,21.7736 2.70315,4.97381 3.30479,5.53945 4.64439,4.36652 0.84644,-0.74113 3.45147,-2.30907 5.78897,-3.48433 z m 116.54122,5.99851 c -0.65444,-1.04791 -2.97126,-2.69124 -5.1485,-3.65183 -2.94525,-1.29944 -4.34106,-2.72013 -5.45257,-5.54974 -1.49668,-3.81018 -6.56943,-7.88196 -9.82886,-7.88939 -1.0634,-0.002 -1.85769,-1.171 -2.26245,-3.32858 -0.34306,-1.82866 -1.96814,-4.61285 -3.61129,-6.18709 -1.64315,-1.57424 -2.98755,-3.72814 -2.98755,-4.78645 0,-1.66008 0.48384,-1.83343 3.52491,-1.26293 2.64215,0.49568 4.47885,0.12514 7.33406,-1.47958 l 3.80916,-2.14087 3.90112,2.09088 c 4.8576,2.60352 6.07788,2.60334 10.35067,-10e-4 l 3.41993,-2.0849 3.80517,2.13863 c 2.85147,1.60261 4.68862,1.97288 7.33007,1.47734 3.17085,-0.59485 3.52491,-0.43891 3.52491,1.55251 0,3.68962 -5.89549,20.10783 -9.60861,26.7588 -3.65565,6.54802 -5.95423,7.78091 -8.10017,4.3447 z m 11.68829,-18.89697 c 3.80842,-10.468 3.80652,-11.19773 -0.0292,-11.19773 -1.67731,0 -4.27447,-0.63337 -5.77146,-1.4075 -2.31375,-1.19649 -3.09337,-1.2018 -5.20034,-0.0354 -3.27004,1.81021 -8.79069,1.78937 -12.31058,-0.0465 -2.49911,-1.30345 -3.16922,-1.30273 -5.70034,0.006 -1.57756,0.81593 -4.09409,1.4834 -5.59227,1.4834 l -2.72398,0 2.15893,2.29807 c 1.18741,1.26395 2.4471,3.73895 2.79931,5.5 0.40474,2.02367 1.23836,3.20331 2.26539,3.20567 3.28978,0.008 8.32149,4.0869 9.85434,7.98915 1.00195,2.55071 2.44044,4.22295 4.15189,4.82654 1.44033,0.50797 3.73996,1.83856 5.1103,2.95687 l 2.49154,2.03328 2.73797,-4.65479 c 1.50588,-2.56013 4.09719,-8.39081 5.75847,-12.95706 z m -81.81124,-8.34346 c -6.60589,-3.26983 -9.66827,-8.60834 -9.66827,-16.85427 0,-5.53657 0.44807,-7.32314 2.68402,-10.70188 5.74608,-8.68292 19.54909,-11.04935 28.78779,-4.93548 11.54771,7.64192 10.26111,26.47346 -2.22155,32.51621 -5.85228,2.83304 -13.8291,2.82303 -19.58199,-0.0246 z m 17.58199,-1.97542 c 8.39779,-4.0653 12.00861,-13.11421 8.4464,-21.16717 -4.00239,-9.04807 -14.79988,-13.01854 -23.6942,-8.71287 -13.11874,6.35067 -13.30994,23.43263 -0.33419,29.85546 5.47546,2.71029 10.01926,2.71745 15.58199,0.0246 z m -75.25026,-24.97265 c -2.2279,-1.44634 -3.96513,-1.79096 -6.75,-1.339 -3.37722,0.5481 -3.75,0.39085 -3.75,-1.5818 0,-3.66986 5.90631,-20.10381 9.60861,-26.7354 3.65263,-6.5426 5.95429,-7.78082 8.09414,-4.35436 0.65112,1.0426 3.1867,2.66053 5.63463,3.5954 3.55551,1.35787 4.56885,2.2901 5.03774,4.63454 0.70911,3.54558 5.07459,7.81436 8.74132,8.54771 1.94137,0.38827 2.82961,1.30694 3.23801,3.34894 0.30953,1.54765 1.9314,4.37268 3.60416,6.27785 1.67277,1.90517 3.04139,4.24212 3.04139,5.19323 0,1.43704 -0.59568,1.61752 -3.52491,1.068 -2.64145,-0.49554 -4.4786,-0.12527 -7.33007,1.47734 l -3.80517,2.13863 -3.41993,-2.0849 c -4.27009,-2.6032 -6.539,-2.622 -10.69409,-0.0886 -3.90122,2.37858 -3.91194,2.37844 -7.72583,-0.0975 z m 13,-3.9062 c 1.97963,0 4.82413,0.63337 6.32112,1.4075 2.31375,1.19649 3.09337,1.2018 5.20034,0.0354 1.3632,-0.75463 3.70248,-1.38801 5.1984,-1.40749 l 2.71987,-0.0354 -2.46987,-3.63955 c -1.35842,-2.00175 -2.46986,-4.4205 -2.46986,-5.375 0,-1.09767 -1.02143,-1.93974 -2.77939,-2.29133 -3.78128,-0.75625 -8.13003,-4.99123 -8.8568,-8.62508 -0.45348,-2.2674 -1.4018,-3.2565 -3.91856,-4.08711 -1.82615,-0.60268 -4.38835,-1.93593 -5.69377,-2.96278 l -2.37349,-1.86698 -3.08339,5.67392 c -3.20803,5.90325 -8.2946,19.23109 -8.2946,21.73351 0,0.95113 1.10394,1.45244 3.25,1.47584 1.7875,0.0195 4.36534,0.65286 5.72854,1.40749 2.10697,1.16637 2.88659,1.16106 5.20034,-0.0354 1.49699,-0.77416 4.34149,-1.40753 6.32112,-1.40753 z m 114,3.88829 c -3.14758,-2.06221 -5.80223,-2.02166 -11.12641,0.16995 -2.6771,1.10198 -3.64683,1.03998 -6.74758,-0.43142 -2.47529,-1.1746 -4.72946,-1.51044 -7.12359,-1.0613 -2.90629,0.54523 -3.50242,0.36273 -3.50242,-1.07221 0,-0.95111 1.36862,-3.28806 3.04139,-5.19323 1.67276,-1.90517 3.30401,-4.77708 3.625,-6.38201 0.32098,-1.60494 1.22471,-2.91807 2.00827,-2.91807 3.39895,0 7.58034,-3.32224 9.42231,-7.48631 1.47111,-3.32569 2.95368,-4.84389 6.32301,-6.47495 2.42072,-1.17185 4.65239,-2.78496 4.95928,-3.58469 2.33592,-6.08731 10.82517,6.88564 16.01758,24.47745 2.50153,8.47519 2.2863,9.41924 -1.96559,8.62158 -2.68266,-0.50327 -4.4349,-0.15846 -7.05716,1.38871 -4.14324,2.44457 -4.06038,2.44513 -7.87409,-0.0535 z m -5,-3.88829 c 1.97963,0 4.82413,0.63337 6.32112,1.4075 2.31375,1.19649 3.09337,1.2018 5.20034,0.0354 1.3632,-0.75463 3.99729,-1.38801 5.85354,-1.40749 3.22192,-0.0338 3.34741,-0.17341 2.76662,-3.07735 -0.92343,-4.61714 -6.19355,-17.28804 -9.11598,-21.91747 -2.42839,-3.84682 -2.70463,-4.00448 -4.27131,-2.4378 -0.92126,0.92125 -3.1328,2.28411 -4.91455,3.02857 -2.29312,0.95813 -3.81287,2.64968 -5.20202,5.79009 -1.9084,4.31426 -6.03824,7.57852 -9.5881,7.57852 -0.85231,0 -1.54966,0.8372 -1.54966,1.86045 0,1.02325 -1.11144,3.49825 -2.46986,5.5 l -2.46987,3.63958 2.71987,0.0147 c 1.49592,0.008 3.84486,0.61 5.21986,1.33753 2.07653,1.09872 2.95741,1.09623 5.20034,-0.0147 1.48519,-0.73564 4.32003,-1.33753 6.29966,-1.33753 z m -71.56331,-18.56739 c -1.32657,-1.41207 -4.2903,-3.06978 -6.58608,-3.68381 -3.40901,-0.91177 -4.27831,-1.6373 -4.74248,-3.95817 -0.72518,-3.62587 -4.7509,-7.66918 -8.35312,-8.38963 -2.158,-0.4316 -3.22021,-1.58457 -4.65439,-5.05209 -1.02205,-2.47108 -2.7003,-5.01872 -3.72945,-5.66144 -3.72087,-2.32372 -2.17935,-4.5102 6.12273,-8.6844 8.76054,-4.40472 21.87622,-9.00307 25.67906,-9.00307 2.21299,0 2.36308,0.29096 1.7729,3.43689 -0.47943,2.55557 -0.0837,4.43524 1.54333,7.33008 l 2.18809,3.89318 -2.0849,3.41993 c -2.6229,4.30242 -2.6229,6.53742 0,10.83984 l 2.0849,3.41993 -2.13863,3.80517 c -1.60261,2.85147 -1.97288,4.68862 -1.47734,7.33007 0.57173,3.04761 0.39899,3.52491 -1.27571,3.52491 -1.06533,0 -3.02235,-1.15533 -4.34891,-2.56739 z m 4.78834,-9.94904 c 0.82502,-1.51881 0.75607,-2.62935 -0.27941,-4.5 -1.76392,-3.18663 -1.76528,-9.77809 -0.003,-12.96211 1.16637,-2.10697 1.16106,-2.88659 -0.0354,-5.20034 -0.77385,-1.49699 -1.40722,-4.27789 -1.40722,-6.17979 l 0,-3.45798 -6.11318,1.85092 c -3.36225,1.01801 -10.06371,3.72831 -14.89212,6.02289 l -8.77894,4.17196 2.41747,3.56234 c 1.3296,1.95928 2.66755,4.55878 2.97322,5.77666 0.36388,1.44982 1.57235,2.41764 3.50022,2.80321 3.76862,0.75373 7.76732,4.74861 8.51996,8.51184 0.47112,2.3556 1.24201,3.05721 3.90876,3.55749 1.82704,0.34276 4.36651,1.47337 5.64325,2.51248 l 2.32136,1.88928 0.56485,-3.17121 c 0.31067,-1.74416 1.05775,-4.07861 1.66018,-5.18764 z m 22.27497,11.45069 c 0,-0.58616 0.50902,-2.01685 1.13115,-3.17932 0.92329,-1.72518 0.69607,-2.91006 -1.23643,-6.44766 -1.95819,-3.58463 -2.15337,-4.63437 -1.12877,-6.07068 3.30397,-4.63156 3.50074,-6.57796 1.12286,-11.10711 l -2.29459,-4.37051 2.16041,-3.75381 c 1.59663,-2.7742 2.00688,-4.69997 1.57205,-7.37949 -0.51827,-3.19371 -0.34064,-3.62568 1.49086,-3.62568 3.64159,0 18.41257,5.10198 26.43246,9.12993 8.07346,4.05485 9.5729,6.25055 5.85436,8.57282 -1.0426,0.65112 -2.66053,3.1867 -3.59541,5.63463 -1.35695,3.55313 -2.29073,4.56898 -4.62993,5.03681 -3.7511,0.75023 -7.75378,4.74961 -8.50307,8.49608 -0.4569,2.28449 -1.26704,3.05795 -3.71597,3.54773 -1.72242,0.34449 -4.79916,1.96636 -6.83719,3.60417 -3.67157,2.95055 -7.82279,3.96521 -7.82279,1.91209 z m 12.81168,-7.5466 c 2.28994,-0.45798 3.11528,-1.27247 3.56427,-3.51739 0.75339,-3.76696 4.75791,-7.74704 8.55962,-8.50738 2.26244,-0.45249 3.25243,-1.4025 4.0825,-3.91764 0.60268,-1.82615 1.95122,-4.40778 2.99674,-5.73695 l 1.90096,-2.41667 -8.70789,-4.05645 c -7.37114,-3.43376 -10.93486,-4.75652 -20.76947,-7.7091 -0.65124,-0.19552 -0.88785,0.86507 -0.61211,2.74382 0.26338,1.79452 -0.26603,4.39115 -1.27864,6.27147 -1.59395,2.95977 -1.60465,3.44774 -0.1379,6.28413 2.01661,3.89969 2.01643,7.47411 -5.8e-4,11.72466 -1.45444,3.06499 -1.45444,3.54714 0,5.62363 0.87495,1.24917 1.59082,3.55174 1.59082,5.11681 l 0,2.84559 2.91584,-2.07626 c 1.60372,-1.14195 4.25684,-2.34447 5.89584,-2.67227 z"
         style="fill:#ffffff" />
      <path
         d="m 306.59175,610.0909 c -2.46978,-1.09053 -5.40346,-5.06297 -5.97025,-8.08421 -0.61714,-3.28965 0.87046,-7.16563 4.0912,-10.65972 2.27612,-2.4693 2.59335,-3.14886 1.78367,-3.82084 -0.54167,-0.44953 -4.99332,-1.58729 -9.89258,-2.52834 -20.36295,-3.91131 -34.03073,-10.06813 -48.89368,-22.02476 -6.22465,-5.00748 -6.62739,-4.86716 -6.68357,2.32865 -0.0414,5.30149 -0.82697,7.10168 -4.17795,9.57395 -3.28565,2.42408 -7.00679,2.93495 -10.6781,1.46599 -6.5708,-2.62912 -9.45948,-9.29023 -6.71722,-15.48955 2.15607,-4.87416 4.63364,-6.26467 11.16219,-6.26467 4.29725,0 5.42545,-0.21835 5.42545,-1.05002 0,-0.57751 -2.1454,-3.68577 -4.76755,-6.90726 -12.20286,-14.99202 -17.61209,-27.24802 -22.73281,-51.50701 -0.64268,-3.04464 -1.51527,-5.53571 -1.93908,-5.53571 -0.42381,0 -2.08939,1.07502 -3.70128,2.38895 -3.83083,3.12268 -5.63636,4.03962 -7.95437,4.03962 -7.89565,0 -12.93165,-10.06997 -8.71459,-17.42565 3.74532,-6.53282 12.61578,-7.16432 17.01693,-1.21145 0.89806,1.21469 2.1804,2.20853 2.84964,2.20853 1.39801,0 1.59814,-0.6585 3.14734,-10.35543 1.26798,-7.93673 4.89131,-19.47725 8.1124,-25.8385 3.12577,-6.17299 10.02882,-16.39155 14.63084,-21.65796 5.60684,-6.41631 5.46628,-7.14811 -1.37292,-7.14811 -6.52855,0 -9.00612,-1.39052 -11.16219,-6.26468 -4.73841,-10.71195 7.98314,-20.96765 17.39532,-14.02356 3.37739,2.49176 4.13828,4.27664 4.16701,9.77494 0.0312,5.97695 1.06071,6.7057 4.88738,3.45966 4.82782,-4.09529 17.56204,-12.29252 23.43441,-15.08513 7.24876,-3.44715 15.6415,-6.0266 26.54956,-8.1598 7.77886,-1.52125 11.58253,-2.73673 11.58253,-3.70125 0,-0.20797 -0.97838,-1.20138 -2.17418,-2.20758 -3.23003,-2.71789 -5.20171,-7.02898 -4.75113,-10.38836 0.48678,-3.62918 3.1007,-7.39216 6.14373,-8.84444 5.11237,-2.43988 12.72372,0.21867 14.79097,5.16629 1.94041,4.64407 0.92738,8.73051 -3.39415,13.69162 -3.57311,4.10191 -3.30332,4.33291 6.88476,5.89497 11.62254,1.78198 21.92436,5.0135 32.04122,10.05083 7.60455,3.7864 8.38774,4.27902 17.7688,11.17631 3.43122,2.52275 6.63283,4.45542 7.11467,4.2948 0.57859,-0.19286 0.88565,-2.0155 0.90427,-5.36743 0.0335,-6.03364 1.2904,-8.23612 6.14143,-10.76177 3.8745,-2.01722 7.43621,-1.7617 11.3262,0.81257 6.29834,4.16805 6.85003,12.99992 1.14556,18.33915 -1.61752,1.51396 -2.78783,1.84006 -7.69016,2.14286 -3.38172,0.20887 -5.8931,0.69364 -6.04922,1.16767 -0.14681,0.44579 1.53453,2.85651 3.73632,5.35714 8.59143,9.75754 16.91832,24.21154 20.31367,35.2609 0.84504,2.75 2.14449,8.543 2.88766,12.87333 0.74317,4.33033 1.56427,8.42854 1.82467,9.10714 0.70009,1.82439 2.10712,1.50641 4.16712,-0.94176 3.75518,-4.46278 9.06772,-5.51624 13.33068,-2.64342 7.0074,4.72227 7.0074,14.91572 0,19.638 -3.85533,2.59811 -6.99337,2.17348 -11.85894,-1.60472 -2.27665,-1.76786 -4.38564,-3.21428 -4.68664,-3.21428 -0.97809,0 -1.35406,1.21718 -3.13143,10.13796 -3.82815,19.21386 -9.37238,31.0346 -22.51128,47.99582 -2.40029,3.09858 -4.10295,5.87961 -3.78367,6.18007 0.31927,0.30045 3.05123,0.66332 6.07101,0.80638 4.65623,0.22058 5.77904,0.52968 7.3893,2.03422 2.79825,2.61453 3.9059,5.20451 3.9059,9.13302 0,10.88965 -14.37227,15.22805 -20.99676,6.33806 -1.18909,-1.59575 -1.50913,-3.07796 -1.53142,-7.09273 -0.0183,-3.29657 -0.32924,-5.17575 -0.88716,-5.36173 -0.47243,-0.15747 -4.15618,2.1436 -8.1861,5.1135 -8.54618,6.29822 -21.06398,12.9456 -30.18427,16.0289 -5.72326,1.93486 -19.55251,5.1151 -22.24299,5.1151 -0.55945,0 -2.19753,0.49318 -3.64019,1.09596 l -2.62301,1.09597 2.98824,2.90038 c 4.46831,4.33696 5.42196,8.76081 3.02639,14.03895 -1.0602,2.33592 -2.11268,3.3884 -4.4486,4.4486 -3.47097,1.57536 -7.15022,1.75734 -10.009,0.49507 l 0,0 z m -5.6223,-51.7535 c -0.0781,-1.86608 0.43076,-5.19013 1.13088,-7.38678 1.24576,-3.90862 1.2411,-4.08595 -0.21792,-8.3019 -1.63512,-4.72482 -1.35315,-7.29746 1.2258,-11.18407 1.35961,-2.04899 1.3589,-2.05607 -0.62287,-6.24652 -1.56571,-3.31069 -1.90755,-4.87364 -1.62133,-7.41297 0.34174,-3.03186 0.26229,-3.21776 -1.37521,-3.21776 -0.95583,0 -3.09608,0.99882 -4.75609,2.21961 -1.66001,1.22079 -4.53584,2.78081 -6.39071,3.46671 -2.6287,0.97206 -3.69268,1.86415 -4.82416,4.04479 -2.49503,4.80852 -3.62856,6.01051 -7.57431,8.03178 -3.15458,1.61598 -4.21287,2.67392 -5.99238,5.99038 -1.18865,2.2153 -2.87615,4.78885 -3.75,5.71902 -1.99083,2.11913 -1.98818,2.77986 0.0183,4.56836 5.20515,4.63961 25.81394,12.90678 32.53531,13.05147 l 2.35674,0.0507 -0.14208,-3.39286 -2e-5,3e-5 z m 35.4286,0.29826 c 8.00825,-2.69976 17.14818,-6.76328 20.36579,-9.05442 2.68877,-1.91457 2.69467,-3.66317 0.0236,-7.00002 -1.16083,-1.45017 -2.61028,-3.83893 -3.22099,-5.30835 -0.87843,-2.11359 -1.98907,-3.11524 -5.31682,-4.79508 -4.62462,-2.3345 -6.86153,-4.68359 -7.58153,-7.96172 -0.37892,-1.72522 -1.19561,-2.46916 -4.15653,-3.7863 -2.02672,-0.90157 -5.27466,-2.65242 -7.21765,-3.8908 -1.94299,-1.23836 -4.43406,-2.25157 -5.53571,-2.25157 -2.30371,0 -2.2488,-0.1801 -1.20685,3.95785 0.74967,2.97722 0.66625,3.36433 -1.42857,6.62882 -1.22361,1.90683 -2.22474,3.766 -2.22474,4.13148 0,0.36548 0.75818,1.78377 1.68486,3.15175 2.87167,4.23922 2.96624,5.48662 0.76514,10.09185 l -1.99842,4.1811 2.01285,4.21136 c 1.76689,3.69677 1.91385,4.49531 1.20275,6.53516 -1.46205,4.19405 -1.23731,4.50048 2.93993,4.00854 2.0625,-0.2429 6.96428,-1.52524 10.89285,-2.84965 l 0,0 z M 251.13202,529.822 c 0.53918,-0.65669 3.1248,-2.58455 5.74584,-4.28415 3.62774,-2.3524 4.96079,-3.68186 5.58339,-5.56838 0.94898,-2.87542 4.1184,-5.7657 8.27757,-7.54853 2.09253,-0.89696 3.19494,-1.93404 3.88038,-3.65037 0.52658,-1.3186 2.21542,-4.21995 3.75296,-6.44742 3.56852,-5.16984 3.37498,-6.73628 -0.79909,-6.46736 -2.1081,0.13581 -4.37785,-0.39568 -7.31081,-1.71191 l -4.25352,-1.90887 -3.47344,1.89048 c -4.32035,2.35143 -5.62029,2.35748 -10.17906,0.0474 l -3.63717,-1.8431 -4.20242,1.88594 c -3.41778,1.5338 -4.80142,1.79611 -7.41051,1.40485 l -3.20809,-0.48107 0,2.69698 c 0,5.6355 8.06368,25.92446 12.15581,30.58514 2.52386,2.87451 3.61971,3.17672 5.07816,1.40041 l 0,0 z m 126.36756,-0.98111 c 3.87867,-4.15214 11.88766,-23.83836 12.28367,-30.19347 l 0.18623,-2.9886 -3.36973,0.21192 c -2.53104,0.15917 -4.36859,-0.27719 -7.38301,-1.7532 l -4.01329,-1.96512 -3.43654,1.93178 c -4.27938,2.40555 -5.43947,2.4071 -10.31947,0.0137 l -3.91083,-1.91805 -4.05451,1.9853 c -3.33527,1.63311 -4.60928,1.90211 -7.18174,1.51634 -4.25313,-0.63779 -4.79711,0.84824 -1.77649,4.85296 1.23686,1.63982 3.09443,4.81427 4.12793,7.05432 1.50019,3.25156 2.29405,4.16397 3.93693,4.5248 2.82668,0.62084 6.07577,3.50953 8.88259,7.89732 1.63382,2.55405 3.52203,4.34623 6.14283,5.8304 2.08115,1.17856 4.39622,2.825 5.14461,3.65875 1.79219,1.9966 2.32978,1.92186 4.74082,-0.65917 l 0,10e-6 z m -56.28881,-26.95421 c 6.31183,-2.79201 10.71125,-9.87416 10.6368,-17.12298 -0.0842,-8.19933 -3.19069,-13.61891 -9.71773,-16.95364 -3.72472,-1.90299 -4.91657,-2.14943 -10.32834,-2.13557 -4.8905,0.0125 -6.70758,0.32807 -9.05807,1.573 -4.32998,2.29336 -7.29631,5.01778 -8.91241,8.18559 -1.86682,3.65927 -1.99925,13.24589 -0.2436,17.63371 1.57901,3.94633 6.51833,8.19381 11.19858,9.63003 4.7002,1.44233 12.16507,1.07413 16.42477,-0.81014 l 0,0 z m -68.74129,-26.94214 c 4.44041,-2.25013 5.76443,-2.23634 10.06582,0.10476 l 3.47344,1.89048 4.31633,-1.93705 c 3.01873,-1.35473 5.21782,-1.86937 7.31506,-1.71191 4.11055,0.30863 4.29144,-1.28255 0.73203,-6.43917 -1.53754,-2.22748 -3.22638,-5.12883 -3.75296,-6.44743 -0.68457,-1.71415 -1.78898,-2.75452 -3.87501,-3.65025 -3.51888,-1.51102 -7.26891,-5.19357 -7.9166,-7.77417 -0.67382,-2.68473 -1.56495,-3.54302 -5.38453,-5.18616 -1.85738,-0.79902 -4.27855,-2.39373 -5.38038,-3.54379 -1.10183,-1.15007 -2.39204,-2.09103 -2.86713,-2.09103 -1.58005,0 -5.38841,5.12036 -7.88812,10.60561 -3.78133,8.29758 -7.52559,19.84872 -7.27505,22.44372 0.22109,2.28993 0.25327,2.30805 4.15139,2.3379 2.67162,0.0204 4.83933,0.53465 6.77513,1.60714 3.51241,1.94596 3.24395,1.95341 7.51058,-0.20865 z m 127.14286,-0.0639 c 2.83406,-1.32418 4.62508,-1.72655 6.42857,-1.44423 4.34199,0.67969 4.77325,-0.11132 3.33286,-6.11293 -1.47257,-6.13575 -5.52087,-16.62083 -8.36476,-21.66472 -2.6488,-4.69788 -6.12901,-8.0534 -7.38751,-7.12282 -2.48458,1.83719 -7.3927,5.40276 -8.8294,6.41423 -0.88327,0.62184 -2.69341,2.8306 -4.02253,4.90835 -2.77383,4.33619 -5.34327,6.57938 -8.2735,7.22296 -1.5339,0.3369 -2.33006,1.15208 -3.1662,3.24178 -0.61435,1.53543 -2.24372,4.35998 -3.6208,6.27679 -1.37708,1.9168 -2.58899,4.25701 -2.69312,5.20047 -0.17763,1.60936 0.009,1.70329 3.02541,1.51976 1.7786,-0.10823 4.96504,0.39933 7.13274,1.13615 3.84967,1.30854 4.00813,1.30695 9.08355,-0.0914 l 5.16553,-1.42312 3.41601,1.83398 c 1.87881,1.00869 3.73743,1.85791 4.13029,1.88714 0.39286,0.0292 2.48214,-0.77287 4.64286,-1.78244 l 0,0 z m -78.7477,-23.50548 c -0.28342,-2.51443 0.0568,-4.10255 1.56624,-7.31095 l 1.9283,-4.09876 -2.01628,-3.83301 c -2.50219,-4.75674 -2.50137,-5.43954 0.0122,-10.14376 l 2.02848,-3.79636 -2.04278,-3.98105 c -1.71711,-3.34638 -1.97287,-4.52196 -1.60432,-7.37391 l 0.43847,-3.39286 -2.65514,0 c -5.60438,0 -26.71206,8.35815 -31.69379,12.55 -2.66447,2.242 -2.7262,2.89916 -0.49487,5.26806 0.94535,1.00364 2.65757,3.57913 3.80491,5.72332 1.68607,3.15097 2.80624,4.27065 5.84176,5.8392 4.20348,2.17206 5.29756,3.31763 6.97708,7.30538 0.96323,2.28706 1.9042,3.09672 5.51651,4.74672 2.39536,1.09413 5.46229,2.82651 6.81539,3.84975 1.35311,1.02323 3.24313,1.86043 4.20004,1.86043 1.63935,0 1.71893,-0.18554 1.37778,-3.2122 l 0,0 z m 28.42928,0.96062 c 1.94299,-1.23837 5.19093,-2.98923 7.21765,-3.8908 3.01166,-1.33971 3.77459,-2.04735 4.17555,-3.8729 0.70428,-3.20655 4.09151,-6.72422 7.86113,-8.16385 2.79512,-1.06747 3.54385,-1.81423 5.29591,-5.28205 1.1223,-2.22135 2.71855,-4.65114 3.54722,-5.39953 2.15218,-1.94367 1.90859,-4.32726 -0.62672,-6.13255 -5.97804,-4.25675 -24.63516,-11.42597 -30.32156,-11.65143 l -3.55697,-0.14103 0.20142,3.00776 c 0.13875,2.07198 -0.40086,4.34981 -1.73444,7.32142 l -1.93586,4.31368 1.88326,4.19646 c 1.03579,2.30805 1.88326,4.59491 1.88326,5.08191 0,0.48699 -0.83654,2.42244 -1.85897,4.30099 l -1.85897,3.41553 1.94094,4.32499 c 1.67814,3.7394 1.83313,4.63427 1.14468,6.60915 -0.43794,1.25628 -0.79625,2.71833 -0.79625,3.24898 0,1.71215 3.86987,1.05162 7.53872,-1.28673 z"
         style="fill:#ffffff" />
    </g>
  </g>
</svg>
